<?xml version="1.0" encoding="utf-8"?>
<!-- Generator: Adobe Illustrator 22.1.0, SVG Export Plug-In . SVG Version: 6.00 Build 0)  -->
<svg version="1.1" id="LOGO" xmlns="http://www.w3.org/2000/svg" xmlns:xlink="http://www.w3.org/1999/xlink" x="0px" y="0px"
	 viewBox="0 0 150 32.3" style="enable-background:new 0 0 150 32.3;" xml:space="preserve">
<style type="text/css">
	.st0{display:none;fill:#404041;}
	.st1{fill:#BB1B89;}
</style>
<path id="LOGO_1_" class="st0" d="M141.1,43.6H72.4c-5.6,0-6.7-8-1.3-9.5l60.4-16.4c8.4-2.5,13.6-11.7,10.6-20.6
	c-2.3-6.6-8.6-10.8-15.6-10.8l-117.6,0c-0.8,0-1.6,0.4-1.8,1.2c-0.4,1.2,0.5,2.4,1.7,2.4h63.1c6.5,0,7.7,9.2,1.5,11L18.5,15.7
	C10.7,18,5.6,26.1,7.3,34.3c1.4,6.5,6.8,11.4,13.4,12.4l2.4,0.4l0,0h118.2c1.2,0,2.1-1.1,1.7-2.4C142.7,44,141.9,43.6,141.1,43.6z
	 M10.6,31.1c0-5.5,3.7-10.4,8.9-12L123.8-9.3c7.4-2,15.1,3.1,15.6,10.7c0,0.3,0,0.6,0,0.8c0,5.5-3.7,10.4-8.9,12L26.2,42.7
	c-7.4,2-15.1-3.1-15.6-10.7C10.6,31.7,10.6,31.4,10.6,31.1z"/>
<g>
	<g>
		<g>
			<path class="st1" d="M48.9,24.4h-7.2c0,0,0,0,0,0c-0.5,0-0.8-0.4-0.8-0.8v-3c0-0.2-0.2-0.4-0.4-0.4c-0.2,0-0.4,0.2-0.4,0.4v3.8
				l0,0c0,0.4,0.3,0.7,0.8,0.8l0,0h0c0,0,0,0,0,0c0,0,0,0,0,0h8c0,0,0,0,0,0c0.2,0,0.4-0.2,0.4-0.4C49.3,24.6,49.2,24.4,48.9,24.4z"
				/>
		</g>
		<g>
			<path class="st1" d="M52,20.6C52,20.6,52,20.6,52,20.6c0-0.2-0.2-0.4-0.4-0.4c-0.2,0-0.4,0.2-0.4,0.4c0,0,0,0,0,0v4.2
				c0,0,0,0,0,0c0,0.2,0.2,0.4,0.4,0.4c0.2,0,0.4-0.2,0.4-0.4c0,0,0,0,0,0V20.6z"/>
		</g>
		<g>
			<path class="st1" d="M62.2,22.3C62.2,22.3,62.2,22.3,62.2,22.3h-3.4l0,0c-0.2,0-0.4,0.2-0.4,0.4s0.2,0.4,0.4,0.4l0,0
				c0,0,3.1,0,3.1,0c0.1,0,0.2,0.1,0.2,0.2c0,0.1-0.2,0.4-0.3,0.5c-0.3,0.4-0.8,0.6-1.3,0.6h-4.3c0,0,0,0,0,0
				c-0.9,0-1.7-0.8-1.7-1.7c0-0.9,0.8-1.7,1.7-1.7l0,0h4.3c0.5,0,1,0.2,1.3,0.6l0,0c0.1,0.1,0.2,0.1,0.3,0.1c0.2,0,0.4-0.2,0.4-0.4
				c0-0.1,0-0.2-0.1-0.2l0,0l0,0c-0.4-0.5-1.1-0.9-1.9-0.9h-4.3c-1.3,0-2.4,1.1-2.4,2.5s1.1,2.5,2.4,2.5h4.3c1.1,0,2-0.6,2.4-1.9
				c0,0,0-0.1,0-0.2C63,22.6,62.6,22.3,62.2,22.3z"/>
		</g>
		<g>
			<path class="st1" d="M109.1,22.3C109.1,22.3,109.1,22.3,109.1,22.3h-3.4l0,0c-0.2,0-0.4,0.2-0.4,0.4s0.2,0.4,0.4,0.4l0,0
				c0,0,3.1,0,3.1,0c0.1,0,0.2,0.1,0.2,0.2c0,0.1-0.2,0.4-0.3,0.5c-0.3,0.4-0.8,0.6-1.3,0.6h-4.3c0,0,0,0,0,0
				c-0.9,0-1.7-0.8-1.7-1.7c0-0.9,0.8-1.7,1.7-1.7l0,0h4.3c0.5,0,1,0.2,1.3,0.6l0,0c0.1,0.1,0.2,0.1,0.3,0.1c0.2,0,0.4-0.2,0.4-0.4
				c0-0.1,0-0.2-0.1-0.2h0l0,0c-0.4-0.5-1.1-0.9-1.9-0.9h-4.3c-1.3,0-2.4,1.1-2.4,2.5s1.1,2.5,2.4,2.5h4.3c1.1,0,2-0.6,2.4-1.9
				c0,0,0-0.1,0-0.2C109.9,22.6,109.5,22.3,109.1,22.3z"/>
		</g>
		<g>
			<path class="st1" d="M73.7,20.2c-0.2,0-0.4,0.2-0.4,0.4h0v0.8l0,0c0,0.5-0.4,0.9-0.9,0.9l0,0h-5.8l0,0c-0.5,0-0.9-0.4-0.9-0.9
				c0,0,0,0,0,0v-0.8h0c0-0.2-0.2-0.4-0.4-0.4c-0.2,0-0.4,0.2-0.4,0.4v4.2c0,0.2,0.2,0.4,0.4,0.4c0.2,0,0.4-0.2,0.4-0.4h0V24l0,0
				c0-0.5,0.4-0.9,0.9-0.9c0,0,0,0,0,0h5.8c0,0,0,0,0,0c0.5,0,0.9,0.4,0.9,0.9l0,0v0.8c0,0,0,0,0,0c0,0.2,0.2,0.4,0.4,0.4
				c0.2,0,0.4-0.2,0.4-0.4h0v-4.2C74.1,20.4,73.9,20.2,73.7,20.2z"/>
		</g>
		<g>
			<path class="st1" d="M84.8,20.2L84.8,20.2l-8.4,0c-0.2,0-0.4,0.2-0.4,0.4s0.2,0.4,0.4,0.4h2.9l0,0c0.5,0,0.9,0.4,0.9,0.9l0,0v2.9
				c0,0.2,0.2,0.4,0.4,0.4c0.2,0,0.4-0.2,0.4-0.4v-2.9l0,0c0-0.5,0.4-0.9,0.9-0.9l0,0h2.9c0,0,0,0,0,0c0.2,0,0.4-0.2,0.4-0.4
				C85.1,20.4,85,20.2,84.8,20.2z"/>
		</g>
		<g>
			<path class="st1" d="M87.8,20.6C87.8,20.6,87.8,20.6,87.8,20.6c0-0.2-0.2-0.4-0.4-0.4S87,20.4,87,20.6c0,0,0,0,0,0v4.2
				c0,0,0,0,0,0c0,0.2,0.2,0.4,0.4,0.4s0.4-0.2,0.4-0.4c0,0,0,0,0,0V20.6z"/>
		</g>
		<g>
			<path class="st1" d="M98.8,20.6c0-0.2-0.2-0.4-0.4-0.4c-0.2,0-0.4,0.2-0.4,0.4c0,0,0,0,0,0l0,2.8c0,0.3-0.3,0.6-0.6,0.6
				c-0.1,0-0.2,0-0.3-0.1c0,0-6.1-3.5-6.1-3.5l0,0c-0.1-0.1-0.3-0.1-0.5-0.1c-0.5,0-0.9,0.4-0.9,0.9v3.7c0,0,0,0,0,0
				c0,0.2,0.2,0.4,0.4,0.4c0.2,0,0.4-0.2,0.4-0.4h0c0,0,0-2.7,0-2.7c0-0.3,0.3-0.6,0.6-0.6c0.1,0,0.2,0,0.3,0.1c0,0,0,0,0,0l6.2,3.5
				l0,0c0.1,0.1,0.3,0.1,0.4,0.1c0.5,0,0.9-0.4,0.9-0.9l0,0L98.8,20.6L98.8,20.6z"/>
		</g>
	</g>
	<g>
		<g>
			<path class="st1" d="M21.8,7.2C21.8,7.2,21.8,7.2,21.8,7.2L21.8,7.2H6.1c-0.3,0-0.6,0.3-0.6,0.6v0c0,0.3,0.3,0.6,0.6,0.6l13.9,0
				l0,0c0.5,0,1,0.4,1,1c0,0.5-0.3,0.8-0.7,0.9l0,0L8.9,13.7c-0.2,0.1-0.4,0.3-0.4,0.6c0,0.3,0.3,0.6,0.6,0.6c0,0,0.1,0,0.1,0
				l13.1-3.9l0,0c0.8-0.2,1.4-1,1.4-1.8C23.7,8,22.9,7.2,21.8,7.2z"/>
		</g>
		<g>
			<path class="st1" d="M7.4,16.3C7.4,16.3,7.4,16.3,7.4,16.3L7.4,16.3h15.7c0.3,0,0.6-0.3,0.6-0.6v0c0-0.3-0.3-0.6-0.6-0.6l-13.9,0
				l0,0c-0.5,0-1-0.4-1-1c0-0.5,0.3-0.8,0.7-0.9l0,0l11.3-3.4c0.2-0.1,0.4-0.3,0.4-0.6c0-0.3-0.3-0.6-0.6-0.6c0,0-0.1,0-0.1,0
				L6.9,12.6l0,0c-0.8,0.2-1.4,1-1.4,1.8C5.5,15.5,6.4,16.3,7.4,16.3z"/>
		</g>
	</g>
	<g>
		<path class="st1" d="M42.5,15.3L42.5,15.3l-5.7-7.1c-0.5-0.6-1.2-1-2-1c-0.8,0-1.5,0.4-2,0.9h0L27,15.3c-0.1,0.1-0.2,0.3-0.2,0.4
			c0,0.4,0.3,0.6,0.6,0.6c0.2,0,0.4-0.1,0.5-0.2l0,0L33.7,9h0c0.2-0.3,0.6-0.5,1-0.5s0.8,0.2,1,0.5h0l5.7,7.1l0,0
			c0.1,0.1,0.3,0.2,0.5,0.2c0.4,0,0.6-0.3,0.6-0.6C42.6,15.5,42.6,15.4,42.5,15.3z"/>
	</g>
	<circle class="st1" cx="34.8" cy="14.2" r="1"/>
	<g>
		<path class="st1" d="M63.3,7.2c-0.4,0-0.6,0.3-0.6,0.6c0,0,0,0,0,0l0,5.2c0,0,0,0,0,0c0,0,0,0,0,0c0,0.8-0.6,1.4-1.4,1.4
			c-0.3,0-0.5-0.1-0.7-0.2c0,0,0,0,0,0L49,7.5l0,0c-0.3-0.2-0.7-0.3-1.1-0.3c-1.2,0-2.1,0.9-2.1,2.1c0,0,0,0,0,0l0,0l0,6.4
			c0,0.4,0.3,0.6,0.6,0.6c0.4,0,0.6-0.3,0.6-0.6c0,0,0,0,0,0h0l0-5.2c0,0,0,0,0,0c0-0.8,0.6-1.4,1.4-1.4c0.3,0,0.5,0.1,0.8,0.2
			l11.6,6.8l0,0c0.3,0.2,0.7,0.3,1,0.3c1.2,0,2.1-0.9,2.1-2.1V7.8C64,7.5,63.7,7.2,63.3,7.2z"/>
	</g>
	<g>
		<path class="st1" d="M131.9,7.2c-0.4,0-0.6,0.3-0.6,0.6c0,0,0,0,0,0l0,5.2c0,0,0,0,0,0c0,0,0,0,0,0c0,0.8-0.6,1.4-1.4,1.4
			c-0.3,0-0.5-0.1-0.7-0.2c0,0,0,0,0,0l-11.6-6.8l0,0c-0.3-0.2-0.7-0.3-1.1-0.3c-1.2,0-2.1,0.9-2.1,2.1c0,0,0,0,0,0l0,0l0,6.4
			c0,0.4,0.3,0.6,0.6,0.6s0.6-0.3,0.6-0.6c0,0,0,0,0,0h0l0-5.2c0,0,0,0,0,0c0-0.8,0.6-1.4,1.4-1.4c0.3,0,0.5,0.1,0.8,0.2l11.6,6.8
			l0,0c0.3,0.2,0.7,0.3,1,0.3c1.2,0,2.1-0.9,2.1-2.1V7.8C132.6,7.5,132.3,7.2,131.9,7.2z"/>
	</g>
	<g>
		<path class="st1" d="M68.5,15.7V7.8c0-0.4-0.3-0.6-0.6-0.6c-0.4,0-0.6,0.3-0.6,0.6v7.9l0,0c0,0.4,0.3,0.6,0.6,0.6
			C68.2,16.3,68.5,16,68.5,15.7C68.5,15.7,68.5,15.7,68.5,15.7z"/>
	</g>
	<g>
		<path class="st1" d="M137,15.7V7.8c0-0.4-0.3-0.6-0.6-0.6c-0.4,0-0.6,0.3-0.6,0.6v7.9l0,0c0,0.4,0.3,0.6,0.6,0.6
			C136.7,16.3,137,16,137,15.7C137,15.7,137,15.7,137,15.7z"/>
	</g>
	<g>
		<path class="st1" d="M89.8,9.8c0-1.5-1.2-2.6-2.6-2.6H72.9h-0.6c-0.4,0-0.6,0.3-0.6,0.6v0v0.6v2.7l0,0v1.3l0,0V15v0.6v0
			c0,0.4,0.3,0.6,0.6,0.6h0.6h14.2c1.5,0,2.7-1.2,2.7-2.7c0-0.8-0.3-1.4-0.8-1.9C89.5,11.2,89.8,10.6,89.8,9.8z M87.2,15
			C87.2,15,87.2,15,87.2,15l-14.3,0v-2.6h14.3c0,0,0,0,0,0c0,0,0,0,0,0c0.7,0,1.3,0.6,1.3,1.3S87.9,15,87.2,15z M87.2,11.1H72.9V8.5
			h14.3c0,0,0,0,0,0c0.7,0,1.3,0.6,1.3,1.3C88.5,10.5,87.9,11.1,87.2,11.1z"/>
	</g>
	<g>
		<path class="st1" d="M106.6,16.3c2.5,0,4.6-2,4.6-4.6l0,0l0,0c0-2.5-2-4.6-4.6-4.6v0l-9,0c-2.5,0-4.6,2-4.6,4.6s2,4.6,4.6,4.6
			H106.6z M97.6,15c-1.8,0-3.3-1.5-3.3-3.3s1.5-3.3,3.3-3.3l0,0l0,0h9l0,0l0,0c1.8,0,3.3,1.5,3.3,3.3s-1.5,3.3-3.3,3.3l0,0l0,0H97.6
			L97.6,15L97.6,15z"/>
	</g>
	<g>
		<path class="st1" d="M143.3,10.4c-0.1-0.2-0.1-0.4-0.2-0.6c-0.1-0.3-0.2-0.4-0.3-0.5c0,0,0,0,0,0c0.1,0,0.2-0.1,0.3-0.2l0,0h0
			c0.1-0.1,0.1-0.2,0.1-0.4c0-0.4-0.3-0.6-0.6-0.6h-0.5h-0.3c-0.1,0-0.3,0.1-0.3,0.3v0.1v0.7v0.4v0.6v0.3h0.5V9.6h0.2
			c0.1,0,0.2,0,0.3,0.2c0,0.1,0.1,0.2,0.1,0.3c0.1,0.2,0.1,0.3,0.1,0.3L143.3,10.4L143.3,10.4z M142.3,9.2c-0.2,0-0.3,0-0.3,0
			c0-0.1,0-0.7,0-0.7s0.2,0,0.3,0c0.2,0,0.3,0.1,0.3,0.3S142.5,9.2,142.3,9.2z"/>
	</g>
	<path class="st1" d="M142.3,7.2c-1.2,0-2.1,0.9-2.1,2.1s0.9,2.1,2.1,2.1c1.2,0,2.1-0.9,2.1-2.1S143.5,7.2,142.3,7.2z M142.3,11
		c-0.9,0-1.7-0.8-1.7-1.7s0.8-1.7,1.7-1.7s1.7,0.8,1.7,1.7S143.3,11,142.3,11z"/>
</g>
</svg>
